<?xml version="1.0" encoding="utf-8"?>
<!-- Generator: Adobe Illustrator 26.5.0, SVG Export Plug-In . SVG Version: 6.00 Build 0)  -->
<svg version="1.1" id="Layer_1" xmlns="http://www.w3.org/2000/svg" xmlns:xlink="http://www.w3.org/1999/xlink" x="0px" y="0px"
	 viewBox="0 0 394.25 393.91" style="enable-background:new 0 0 394.25 393.91;" xml:space="preserve">
<style type="text/css">
	.st0{fill:#212121;stroke:#000000;stroke-miterlimit:10;}
	.st1{fill:#4FD076;stroke:#000000;stroke-miterlimit:10;}
	.st2{fill:#808080;stroke:#000000;stroke-miterlimit:10;}
	.st3{fill:#DFDFDF;stroke:#000000;stroke-miterlimit:10;}
	.st4{fill:#FFFFFF;stroke:#000000;stroke-miterlimit:10;}
</style>
<g>
	<g>
		<g>
			<g>
				<path class="st0" d="M196.97,196.94L20.41,110.82C53.99,41.98,120.38,0.5,196.97,0.5V196.94z"/>
			</g>
		</g>
		<g>
			<g>
				<path class="st1" d="M196.97,196.94l170.12,98.22c-54.24,93.95-174.38,126.15-268.34,71.9C9.4,315.47-24.82,203.56,20.41,110.82
					L196.97,196.94z"/>
			</g>
		</g>
		<g>
			<g>
				<path class="st2" d="M196.97,196.94l193.45-34.11c8.42,47.76,0.91,90.33-23.33,132.33L196.97,196.94z"/>
			</g>
		</g>
		<g>
			<g>
				<path class="st3" d="M196.97,196.94l138.9-138.9c29.61,29.61,47.28,63.55,54.55,104.79L196.97,196.94z"/>
			</g>
		</g>
		<g>
			<g>
				<path class="st4" d="M196.97,196.94V0.5c55,0,100.01,18.64,138.9,57.54L196.97,196.94z"/>
			</g>
		</g>
	</g>
	<g>
		<g>
		</g>
		<g>
		</g>
		<g>
		</g>
		<g>
		</g>
		<g>
		</g>
	</g>
</g>
</svg>
